# xmcd
#
# Track frame offsets: 
#        182
#        17622
#        34735
#        48515
#        59882
#        74897
#        90297
#        104537
#        123940
#        137525
#        150395
#        189642
#
# Disc length: 2695 seconds
#
# Revision: 2
# Processed by: cddbd v1.5.1PL0 Copyright (c) Steve Scherf et al.
# Submitted via: ExactAudioCopy v0.95a5
#
DISCID=a50a850c
DTITLE=Climax Chicago Blues Band - Climax Chicago Blues Band
DYEAR=1968
DGENRE=Blues
TTITLE0=Mean Old World
TTITLE1=Insurance
TTITLE2=Going Down This Road
TTITLE3=You've Been Drinking
TTITLE4=Don't Start Me Talkin'
TTITLE5=Wee Baby Blues
TTITLE6=Twenty Past One
TTITLE7=A Stranger In Your Town
TTITLE8=How Many More Years
TTITLE9=Looking For My Baby
TTITLE10=And Lonely
TTITLE11=The Entertainer
EXTD=
EXTT0=
EXTT1=
EXTT2=
EXTT3=
EXTT4=
EXTT5=
EXTT6=
EXTT7=
EXTT8=
EXTT9=
EXTT10=
EXTT11=
PLAYORDER=
